<?xml version="1.0" standalone="no"?>
<!DOCTYPE svg PUBLIC "-//W3C//DTD SVG 20010904//EN"
 "http://www.w3.org/TR/2001/REC-SVG-20010904/DTD/svg10.dtd">
<svg version="1.0" xmlns="http://www.w3.org/2000/svg"
 width="1192.000000pt" height="1188.000000pt" viewBox="0 0 1192.000000 1188.000000"
 preserveAspectRatio="xMidYMid meet">
<metadata>
Created by potrace 1.16, written by Peter Selinger 2001-2019
</metadata>
<g transform="translate(0.000000,1188.000000) scale(0.100000,-0.100000)"
fill="#000000" stroke="none">
<path d="M5075 11854 c-2058 -306 -3815 -1676 -4622 -3604 -225 -540 -358
-1063 -430 -1700 -26 -227 -26 -945 0 -1180 53 -485 132 -854 277 -1290 97
-291 179 -491 320 -775 91 -185 279 -518 307 -546 6 -6 964 751 1031 815 10
10 2 30 -39 102 -78 134 -220 431 -282 589 -147 377 -241 754 -294 1185 -26
209 -26 812 0 1020 65 524 194 981 401 1430 317 684 813 1299 1421 1760 489
371 1075 652 1665 799 159 39 421 91 461 91 19 0 19 14 19 665 l0 665 -37 -1
c-21 0 -110 -11 -198 -25z"/>
<path d="M6610 11217 l0 -663 158 -28 c1729 -308 3149 -1582 3642 -3270 212
-722 244 -1475 95 -2211 -35 -175 -95 -404 -140 -535 -21 -62 -23 -77 -12 -85
8 -5 248 -198 533 -427 285 -230 523 -419 529 -420 14 -4 124 274 204 517 419
1269 396 2673 -65 3918 -403 1086 -1103 2024 -2034 2723 -606 455 -1350 811
-2087 998 -260 66 -699 146 -798 146 l-25 0 0 -663z"/>
<path d="M5680 9694 c-904 -79 -1698 -437 -2328 -1048 -906 -880 -1305 -2132
-1076 -3376 210 -1143 958 -2136 2004 -2660 962 -482 2101 -526 3092 -119 340
140 693 351 958 572 73 61 84 67 100 55 10 -7 170 -134 354 -283 l335 -269
-62 -56 c-605 -548 -1383 -941 -2179 -1099 -347 -70 -524 -86 -923 -86 -347 0
-455 8 -725 51 -879 141 -1701 531 -2352 1117 -49 43 -92 77 -97 75 -16 -5
-1030 -823 -1031 -830 0 -11 260 -249 394 -361 811 -676 1786 -1125 2821
-1297 393 -65 669 -85 1105 -77 421 7 682 35 1070 113 1399 280 2660 1067
3546 2214 106 137 294 409 294 425 0 10 -2769 2247 -2788 2252 -4 1 -35 -56
-69 -126 -303 -623 -893 -1099 -1573 -1271 -731 -185 -1501 -20 -2095 450
-110 87 -292 267 -379 375 -235 291 -417 670 -489 1020 -40 191 -51 297 -51
500 0 258 25 435 94 678 246 856 982 1531 1856 1701 194 38 344 49 549 43 276
-9 503 -52 755 -145 423 -155 829 -457 1101 -819 88 -116 214 -325 260 -429
19 -43 38 -73 44 -70 16 6 1032 823 1040 836 4 6 -26 65 -66 132 -246 412
-598 797 -994 1091 -516 382 -1096 613 -1770 703 -105 14 -621 27 -725 18z"/>
</g>
</svg>
